<svg width="11" height="10" viewBox="0 0 11 10" fill="none" xmlns="http://www.w3.org/2000/svg">
<path d="M2.75 0C1.99375 0 1.32 0.316512 0.81125 0.811922C0.31625 1.30733 0 1.98164 0 2.75228C0 3.50915 0.31625 4.18346 0.81125 4.69263L5.5 9.38526L10.1887 4.69263C10.6838 4.19722 11 3.52291 11 2.75228C11 1.9954 10.6838 1.32109 10.1887 0.811922C9.69375 0.316512 9.02 0 8.25 0C7.49375 0 6.82 0.316512 6.31125 0.811922C5.81625 1.30733 5.5 1.98164 5.5 2.75228C5.5 1.9954 5.18375 1.32109 4.68875 0.811922C4.19375 0.316512 3.52 0 2.75 0Z" fill="#F6ED1E"/>
</svg>
