<svg width="15" height="15" viewBox="0 0 15 15" fill="none" xmlns="http://www.w3.org/2000/svg">
<path d="M0 5.3417C0 3.47194 0 2.53705 0.363881 1.82289C0.683963 1.1947 1.1947 0.683963 1.82289 0.363881C2.53705 0 3.47194 0 5.3417 0H9.4183C11.2881 0 12.223 0 12.9371 0.363881C13.5653 0.683963 14.076 1.1947 14.3961 1.82289C14.76 2.53705 14.76 3.47194 14.76 5.3417V9.4183C14.76 11.2881 14.76 12.223 14.3961 12.9371C14.076 13.5653 13.5653 14.076 12.9371 14.3961C12.223 14.76 11.2881 14.76 9.4183 14.76H5.3417C3.47194 14.76 2.53705 14.76 1.82289 14.3961C1.1947 14.076 0.683963 13.5653 0.363881 12.9371C0 12.223 0 11.2881 0 9.4183V5.3417Z" fill="#330000"/>
<path d="M7.15258 9.27576H4.86536L4.4 10.7585C4.38709 10.8135 4.33637 10.8526 4.28118 10.8498H3.1227C3.05664 10.8498 3.03354 10.8126 3.05339 10.7381L5.03368 4.88862C5.0535 4.82768 5.07332 4.75831 5.09309 4.68045C5.11902 4.54492 5.13226 4.40723 5.13273 4.26917C5.12704 4.22837 5.16288 4.19233 5.202 4.19805H6.77636C6.82249 4.19805 6.84884 4.21498 6.85554 4.24882L9.10322 10.7483C9.12299 10.816 9.10322 10.8499 9.04381 10.8498H7.75658C7.71146 10.855 7.66834 10.824 7.65759 10.7788L7.15258 9.27576ZM5.22182 7.99618H6.78627C6.52924 7.11785 6.23915 6.25107 6.00404 5.36594C5.75038 6.2526 5.47363 7.13567 5.22182 7.99618Z" fill="#FF9A00"/>
<path d="M10.4398 5.27449C10.3388 5.27865 10.2381 5.26089 10.1442 5.22241C10.0504 5.18393 9.96552 5.12552 9.8952 5.05109C9.82509 4.97339 9.77058 4.8823 9.73489 4.78293C9.69921 4.68362 9.68302 4.57803 9.68724 4.47223C9.68365 4.36749 9.70163 4.26317 9.74001 4.16604C9.77843 4.06892 9.83637 3.9812 9.91006 3.9086C9.98302 3.83675 10.0692 3.78047 10.1635 3.74299C10.2578 3.70551 10.3584 3.68759 10.4596 3.69026C10.6972 3.69026 10.8837 3.76304 11.019 3.9086C11.0873 3.98424 11.1404 4.07296 11.1753 4.16968C11.21 4.26638 11.226 4.36923 11.222 4.47223C11.2261 4.5784 11.2094 4.68441 11.1728 4.78382C11.1363 4.88324 11.0806 4.97412 11.0091 5.05109C10.9344 5.12663 10.8452 5.18545 10.7473 5.22394C10.6493 5.26236 10.5446 5.2796 10.4398 5.27449ZM9.75656 10.7482V5.89399C9.75656 5.83305 9.78286 5.80258 9.83579 5.80258H11.0537C11.1064 5.80258 11.1328 5.83305 11.1329 5.89399V10.7482C11.1329 10.816 11.1065 10.8499 11.0537 10.8498H9.8457C9.78629 10.8498 9.75656 10.816 9.75656 10.7482Z" fill="#FF9A00"/>
</svg>
