<svg width="20" height="16" viewBox="0 0 20 16" fill="none" xmlns="http://www.w3.org/2000/svg">
<path d="M0 14.6783C0 15.3834 0.57612 15.9546 1.28595 15.9546H1.30443C0.583734 15.9546 0 15.3834 0 14.6783Z" fill="#FBBC05"/>
<path d="M11.0506 4.78636V8.11873L15.5433 4.49493V1.27636C15.5433 0.571172 14.9672 0 14.2573 0L4.52408 0L4.51538 4.78636L11.0506 4.78636Z" fill="#FBBC05"/>
<path d="M11.0509 11.4525H4.5048L4.49719 15.9549L14.2576 15.9549C14.9685 15.9549 15.5436 15.3837 15.5436 14.6785L15.5436 11.7726L11.0509 8.12012V11.4525Z" fill="#34A853"/>
<path d="M4.52421 0L0 4.78636L4.5166 4.78636L4.52421 0Z" fill="#EA4335"/>
<path d="M0 11.4522L0 14.6782C0 15.3834 0.583734 15.9546 1.30443 15.9546H4.49704L4.50465 11.4522H0Z" fill="#1967D2"/>
<path d="M4.5166 4.78635L0 4.78635L0 11.4522H4.50465L4.5166 4.78635Z" fill="#4285F4"/>
<path d="M19.4935 13.5436V2.58813C19.2402 1.13414 17.6455 2.80085 17.6455 2.80085L15.5443 4.49523L15.5443 11.7716L18.5521 14.2169C19.6381 14.3594 19.4935 13.5436 19.4935 13.5436Z" fill="#34A853"/>
<path d="M11.0506 8.11875L15.5444 11.7723V4.496L11.0506 8.11875Z" fill="#188038"/>
</svg>
