<svg width="15" height="15" viewBox="0 0 15 15" fill="none" xmlns="http://www.w3.org/2000/svg">
<path d="M0 5.3417C0 3.47194 0 2.53705 0.363881 1.82289C0.683963 1.1947 1.1947 0.683963 1.82289 0.363881C2.53705 0 3.47194 0 5.3417 0H9.4183C11.2881 0 12.223 0 12.9371 0.363881C13.5653 0.683963 14.076 1.1947 14.3961 1.82289C14.76 2.53705 14.76 3.47194 14.76 5.3417V9.4183C14.76 11.2881 14.76 12.223 14.3961 12.9371C14.076 13.5653 13.5653 14.076 12.9371 14.3961C12.223 14.76 11.2881 14.76 9.4183 14.76H5.3417C3.47194 14.76 2.53705 14.76 1.82289 14.3961C1.1947 14.076 0.683963 13.5653 0.363881 12.9371C0 12.223 0 11.2881 0 9.4183V5.3417Z" fill="#001E36"/>
<path d="M3.16284 10.815V4.32435C3.16284 4.28023 3.18129 4.25498 3.22434 4.25498C3.85988 4.25498 4.49514 4.21713 5.13082 4.21713C6.16239 4.21713 7.2793 4.56984 7.67081 5.64896C7.76306 5.9139 7.81224 6.18512 7.81224 6.46898C7.81224 7.01146 7.68926 7.45927 7.44324 7.81251C6.75606 8.79922 5.56503 8.78388 4.49741 8.78388V10.8087C4.50574 10.8686 4.45466 10.897 4.40516 10.897H3.23664C3.18744 10.897 3.16284 10.8717 3.16284 10.815ZM4.50352 5.47237V7.59174C4.92687 7.62274 5.36983 7.62611 5.77657 7.49085C6.22565 7.36128 6.47156 6.97261 6.47156 6.50683C6.484 6.10994 6.26777 5.72914 5.89961 5.58591C5.49777 5.41881 4.93731 5.40879 4.50352 5.47237Z" fill="#31A8FF"/>
<path d="M11.6481 7.17302C11.462 7.07492 11.2638 7.00318 11.0589 6.95974C10.7956 6.8978 9.75727 6.68083 9.75685 7.22379C9.76608 7.52689 10.2473 7.67539 10.4598 7.762C11.2062 8.01824 12.0508 8.47628 12.0342 9.39704C12.057 10.5433 10.9465 11.0015 9.99449 11.0016C9.49892 11.0067 8.98264 10.93 8.52908 10.7172C8.48575 10.6943 8.45792 10.6453 8.45976 10.5953V9.49857C8.45486 9.4546 8.50209 9.41617 8.53899 9.4478C8.98337 9.71654 9.5101 9.84706 10.0242 9.85402C10.2512 9.85402 10.7009 9.83204 10.6975 9.49857C10.6975 9.17859 10.1595 9.03147 9.94499 8.95018C9.63408 8.83922 9.3393 8.68545 9.06872 8.4932C8.69055 8.22346 8.45333 7.79099 8.45976 7.31519C8.45755 6.23592 9.47984 5.75148 10.4005 5.75127C10.8309 5.74768 11.2931 5.77957 11.6937 5.95437C11.7513 5.9713 11.7632 6.03202 11.763 6.08637V7.11209C11.7666 7.17576 11.6959 7.19743 11.6481 7.17302Z" fill="#31A8FF"/>
</svg>
